# xmcd
#
# Track frame offsets:
#	150
#	14510
#	35972
#	61462
#	74802
#	92225
#	106845
#	121342
#	134435
#	192280
#	205390
#	214905
#	259302
#	272855
#	287735
#	298217
#
# Disc length: 4322 seconds
#
# Revision: 4
# Processed by: cddbd v1.5.2PL0 Copyright (c) Steve Scherf et al.
# Submitted via: audiograbber 1.83.01
#
DISCID=1710e010
DTITLE=Various Artist - Doing The James Brown - In The Footsteps Of The Godfather Of F
DTITLE=unk
DYEAR=2001
DGENRE=Funk
TTITLE0=Dillard Crume And The Soul Rockers - Mother Popcorn
TTITLE1=Otis Redding - Papa's Got A Brand New Bag (Live)
TTITLE2=Bernard Purdie - Cold Sweat
TTITLE3=James Brown - Popcorn With A Feeling
TTITLE4=The Daktaris - Give It Up Or Turn It Loose
TTITLE5=Chollo Rivera and The Latin Soul Drives - I Got The Feeling
TTITLE6=The Capitols - Please Please Please
TTITLE7=The Last Poets - James Brown
TTITLE8=James Brown - Cold Sweat (Live)
TTITLE9=Lou Pride - It's A Man's Man's Man's World
TTITLE10=Aretha Franklin - Money Won't Change You
TTITLE11=Grant Green - Ain't It Funky Now
TTITLE12=Jerry O - There Was A Time
TTITLE13=The St. Vincent Latinaires - Hot Pants - I'm Coming, Coming, I'm Comin
TTITLE13=g
TTITLE14=Larry Willis - Lickin' Stick
TTITLE15=James Brown - Calm And Cool
EXTD=
EXTT0=
EXTT1=
EXTT2=
EXTT3=
EXTT4=
EXTT5=
EXTT6=
EXTT7=
EXTT8=
EXTT9=
EXTT10=
EXTT11=
EXTT12=
EXTT13=
EXTT14=
EXTT15=
PLAYORDER=
